<svg width="21" height="15" viewBox="0 0 21 15" fill="none" xmlns="http://www.w3.org/2000/svg">
<path d="M20 13.2264C19.9969 13.4488 19.9042 13.661 19.7419 13.8171C19.5797 13.9733 19.361 14.0608 19.1331 14.0608H1.86687C1.639 14.0608 1.4203 13.9733 1.25806 13.8171C1.09583 13.661 1.00312 13.4488 1 13.2264V1.846C1 1.62162 1.09132 1.40644 1.25389 1.24779C1.41647 1.08913 1.63696 1 1.86687 1H19.1331C19.363 1 19.5835 1.08913 19.7461 1.24779C19.9087 1.40644 20 1.62162 20 1.846V13.2264Z" stroke="#FF5E83" stroke-miterlimit="10"/>
<path d="M18.7056 2.26318L12.6375 8.18517C12.0699 8.73716 11.3013 9.04711 10.5 9.04711C9.69871 9.04711 8.93008 8.73716 8.3625 8.18517L2.72188 2.68039" stroke="#FF5E83" stroke-miterlimit="10" stroke-linecap="round"/>
<path d="M2.73376 12.3807L6.61688 8.59106" stroke="#FF5E83" stroke-miterlimit="10" stroke-linecap="round"/>
<path d="M18.2781 12.3807L14.395 8.59106" stroke="#FF5E83" stroke-miterlimit="10" stroke-linecap="round"/>
</svg>
