<svg width="21" height="22" viewBox="0 0 21 22" fill="none" xmlns="http://www.w3.org/2000/svg">
<path d="M10.5238 20.5237C15.7837 20.5237 20.0476 16.2597 20.0476 10.9999C20.0476 5.74003 15.7837 1.47607 10.5238 1.47607C5.26395 1.47607 1 5.74003 1 10.9999C1 16.2597 5.26395 20.5237 10.5238 20.5237Z" stroke="#E65576" stroke-linejoin="round"/>
<path d="M16.238 17.1905L13.1999 15.9715C12.9951 15.916 12.8119 15.7999 12.6742 15.6385C12.5365 15.477 12.4509 15.2777 12.4285 15.0667V14.3334C13.8571 13.9 13.938 12.5953 13.938 11.4762C14.1479 11.3481 14.3359 11.1874 14.4952 11C14.7565 10.382 14.9173 9.72605 14.9714 9.05718L14.3333 8.61908V7.36194C14.3333 5.48575 12.6666 3.85718 10.5237 3.85718C8.38088 3.85718 6.71421 5.48575 6.71421 7.36194V8.61908L6.08564 9.05718C6.13972 9.72605 6.30048 10.382 6.56183 11C6.72107 11.1874 6.90915 11.3481 7.11897 11.4762C7.11897 12.5953 7.19992 13.9 8.62849 14.3334V15.0667C8.6061 15.2777 8.52046 15.477 8.38279 15.6385C8.24513 15.7999 8.06187 15.916 7.85706 15.9715L4.80945 17.1905" stroke="#E65576" stroke-linejoin="round"/>
</svg>
