<svg width="24" height="24" viewBox="0 0 24 24" fill="none" xmlns="http://www.w3.org/2000/svg">
    <path fill-rule="evenodd" clip-rule="evenodd" d="M14.9333 12.8C15.4667 12.4 15.4667 11.6 14.9333 11.2L11.6 8.7C10.9408 8.20557 10 8.67595 10 9.5V14.5C10 15.324 10.9408 15.7944 11.6 15.3L14.9333 12.8ZM2 12C2 17.52 6.48 22 12 22C17.52 22 22 17.52 22 12C22 6.48 17.52 2 12 2C6.48 2 2 6.48 2 12ZM4 12C4 7.59 7.59 4 12 4C16.41 4 20 7.59 20 12C20 16.41 16.41 20 12 20C7.59 20 4 16.41 4 12Z" fill="#C2D1D9"/>
    <mask id="mask0_197_2577" style="mask-type:alpha" maskUnits="userSpaceOnUse" x="2" y="2" width="20" height="20">
    <path fill-rule="evenodd" clip-rule="evenodd" d="M14.9333 12.8C15.4667 12.4 15.4667 11.6 14.9333 11.2L11.6 8.7C10.9408 8.20557 10 8.67595 10 9.5V14.5C10 15.324 10.9408 15.7944 11.6 15.3L14.9333 12.8ZM2 12C2 17.52 6.48 22 12 22C17.52 22 22 17.52 22 12C22 6.48 17.52 2 12 2C6.48 2 2 6.48 2 12ZM4 12C4 7.59 7.59 4 12 4C16.41 4 20 7.59 20 12C20 16.41 16.41 20 12 20C7.59 20 4 16.41 4 12Z" fill="white"/>
    </mask>
    <g mask="url(#mask0_197_2577)">
    <rect width="24" height="24" fill="white"/>
    </g>
</svg>
