<svg width="177" height="29" viewBox="0 0 177 29" fill="none" xmlns="http://www.w3.org/2000/svg">
<path d="M15.5048 0.263803H14.8759C13.4849 0.263803 12.977 0.735512 12.977 2.12645V20.3417C13.0249 20.914 12.9473 21.4898 12.7495 22.0289C12.5517 22.5681 12.2385 23.0575 11.8319 23.463C11.4252 23.8685 10.9349 24.1803 10.3952 24.3765C9.85555 24.5728 9.2795 24.6488 8.70737 24.5992C8.13377 24.648 7.55641 24.5718 7.01513 24.3758C6.47385 24.1797 5.98155 23.8686 5.57219 23.4639C5.16284 23.0591 4.84617 22.5704 4.64406 22.0313C4.44195 21.4923 4.35919 20.9158 4.40151 20.3417V2.12645C4.40151 0.735512 3.94189 0.263803 2.53886 0.263803H1.90991C0.518973 0.263803 0.0109763 0.735512 0.0109763 2.12645V20.3417C-0.0328279 21.4631 0.159928 22.5811 0.576703 23.623C0.993479 24.665 1.62494 25.6075 2.43 26.3893C4.14722 27.9426 6.40592 28.7592 8.71947 28.6632C11.0229 28.7641 13.2721 27.9462 14.9726 26.3893C15.7711 25.6025 16.3981 24.6592 16.8144 23.6184C17.2307 22.5777 17.4273 21.4621 17.3917 20.3417V2.12645C17.3675 0.735512 16.8958 0.263803 15.5048 0.263803ZM41.4852 24.4299H31.4341L41.4852 7.66602C42.2351 6.56487 42.6547 5.27237 42.6947 3.94072V2.33207C42.6947 0.771797 42.223 0.263803 40.6627 0.263803H29.6561C28.2652 0.263803 27.7935 0.735512 27.7935 2.12645V2.46512C27.7935 3.85606 28.2652 4.32776 29.6561 4.32776H38.4493L28.4345 21.0916C27.6455 22.2006 27.2226 23.5284 27.225 24.8895V26.4135C27.225 27.9737 27.733 28.4817 29.2933 28.4817H41.4852C42.8761 28.4817 43.3357 28.01 43.3357 26.6191V26.2925C43.3841 24.9016 42.9245 24.4299 41.4852 24.4299ZM65.3126 2.29578C64.9376 0.735511 64.345 0.263803 62.7847 0.263803H59.7004C58.1402 0.263803 57.5475 0.735511 57.1604 2.29578L51.6693 26.6312C51.3306 27.9858 51.8023 28.4938 53.1932 28.4938H53.9069C55.3946 28.4938 55.8905 28.1068 56.2291 26.6312L57.2088 22.3011H65.3126L66.2923 26.607C66.5826 28.0826 67.0905 28.4696 68.5662 28.4696H69.304C70.707 28.4696 71.1303 27.9617 70.7917 26.607L65.3126 2.29578ZM58.0555 18.3097L58.8538 14.5965C59.8214 10.073 60.5834 5.83966 61.176 1.9934C61.5631 4.41243 62.3855 8.58525 63.5951 14.6328L64.3933 18.2614L58.0555 18.3097ZM93.591 14.0039C96.01 13.3628 97.5582 11.5002 97.5582 8.16192V7.24269C97.5582 3.0094 94.5949 0.263803 89.2367 0.263803H82.6086C81.0483 0.263803 80.5403 0.771797 80.5403 2.33207V26.4256C80.5403 27.9858 81.0483 28.4938 82.6086 28.4938H89.5754C95.115 28.4938 98.2839 25.5305 98.2839 21.019V20.0877C98.3323 16.4108 96.5059 14.3788 93.591 14.0039ZM84.9188 4.2431H89.1037C91.7646 4.2431 93.2523 5.45261 93.2523 7.61764V8.4643C93.2523 10.8833 92.0428 12.2622 88.7287 12.2622H84.9188V4.2431ZM93.9659 20.765C93.9659 23.0873 92.4056 24.5145 89.1279 24.5145H84.9188V16.1568H89.2367C92.4056 16.1568 93.9659 17.3663 93.9659 19.9547V20.765ZM120.841 2.29578C120.454 0.735511 119.862 0.263803 118.301 0.263803H115.265C113.705 0.263803 113.113 0.735511 112.738 2.29578L107.234 26.6312C106.896 27.9858 107.367 28.4938 108.758 28.4938H109.484C110.96 28.4938 111.468 28.1068 111.806 26.6312L112.738 22.3253H120.89L121.857 26.6312C122.16 28.1068 122.668 28.4938 124.143 28.4938H124.905C126.296 28.4938 126.72 27.9858 126.381 26.6312L120.841 2.29578ZM113.584 18.3097L114.382 14.5965C115.362 10.073 116.124 5.83966 116.705 1.9934C117.092 4.41243 117.914 8.58525 119.124 14.6328L119.922 18.2614L113.584 18.3097ZM144.003 12.0928C141.512 10.9559 139.528 9.48029 139.528 7.44831C139.528 5.41633 140.968 4.02539 143.375 4.02539C143.893 3.9686 144.418 4.01901 144.917 4.17351C145.415 4.328 145.877 4.58328 146.273 4.9235C146.668 5.26373 146.99 5.68164 147.218 6.15133C147.445 6.62102 147.574 7.13245 147.596 7.65393C147.729 8.86344 148.225 9.17791 149.579 9.17791H150.22C151.527 9.17791 151.986 8.7062 151.986 7.56926C152.017 6.5427 151.822 5.5219 151.414 4.57921C151.007 3.63653 150.397 2.79503 149.628 2.11436C147.907 0.628083 145.682 -0.142373 143.411 -0.0385754C141.2 -0.122326 139.039 0.63389 137.363 2.07807C136.582 2.75194 135.96 3.5907 135.541 4.53394C135.123 5.47719 134.919 6.50145 134.944 7.53298C134.872 12.7218 139.601 14.7901 143.193 16.314C145.721 17.3784 147.717 18.8903 147.717 20.9707C147.717 23.2929 146.06 24.5992 143.483 24.5992C140.617 24.5992 138.923 22.918 138.79 20.6804C138.669 19.4709 138.198 19.108 136.855 19.108H136.178C134.968 19.108 134.364 19.616 134.364 20.632C134.325 21.7516 134.547 22.865 135.01 23.8848C135.474 24.9046 136.168 25.8032 137.037 26.5102C138.875 28.0193 141.204 28.7986 143.58 28.6995C145.88 28.8228 148.138 28.0513 149.882 26.5465C150.658 25.8278 151.271 24.9502 151.678 23.9734C152.085 22.9966 152.277 21.9436 152.24 20.886C152.277 15.8181 147.632 13.6168 143.991 12.0928H144.003ZM175.148 4.32776C176.539 4.32776 176.999 3.85606 176.999 2.46512V2.12645C176.999 0.735512 176.539 0.263803 175.148 0.263803H164.71C163.15 0.263803 162.642 0.771797 162.642 2.33207V26.4256C162.642 27.9858 163.15 28.4938 164.71 28.4938H175.148C176.539 28.4938 176.999 28.0221 176.999 26.6312V26.2925C176.999 24.9016 176.539 24.4299 175.148 24.4299H166.996V16.4108H174.253C175.656 16.4108 176.08 15.9875 176.08 14.5119V14.1732C176.08 12.7702 175.656 12.3106 174.253 12.3106H166.996V4.32776H175.148Z" fill="#201F1F"/>
</svg>
