<svg width="250" height="25" viewBox="0 0 250 25" fill="none" xmlns="http://www.w3.org/2000/svg">
<path d="M46.6344 0V24.4337H51.5693V14.9101H68.7919L72.2957 11.8505V3.05959L68.7919 0H46.6344ZM67.3115 10.5578H51.5693V4.35238H67.3115V10.5578Z" fill="white"/>
<path d="M116.561 20.0813H97.0687V14.2637H111.923V9.91136H97.0687V4.30929H116.561V0H92.0845V24.4337H116.561V20.0813Z" fill="white"/>
<path d="M160.876 20.0813H141.334V14.2637H156.188V9.91136H141.334V4.30929H160.876V0H136.4V24.4337H160.876V20.0813Z" fill="white"/>
<path d="M180.665 0V24.4337H196.358L205.142 17.3233V7.15341L197 0H180.665ZM200.207 15.4272L194.433 20.0813H185.649V4.30929H194.927L200.207 8.92022V15.4272Z" fill="white"/>
<path d="M19.8381 5.60207H25.6613V3.05959L22.1575 0H3.50375L0 3.05959V11.2041L3.50375 14.2637H20.6771V20.1244L5.82313 20.0813V18.8316H0V21.3741L3.50375 24.4337H22.1575L25.6613 21.3741V12.971L22.1575 9.91136H4.93486V4.35238H19.8381V5.60207Z" fill="white"/>
<path d="M237.021 0H231.692L218.614 24.4337H224.043L226.707 19.4349L226.757 19.3056H241.808L241.857 19.4349L244.522 24.4337H250L237.021 0ZM229.126 14.9963L229.224 14.8239L234.356 5.21424L239.489 14.8239L239.587 14.9963H229.126Z" fill="white"/>
</svg>
